# Blender v2.80 (sub 75) OBJ File: ''
# www.blender.org
mtllib item.mtl
o item
v 0.499959 0.500000 0.031948
v -0.500040 0.500000 0.030651
v -0.500040 -0.500000 0.030652
v 0.499959 -0.500000 0.031949
v 0.500040 -0.500000 -0.030651
v -0.499959 -0.500000 -0.031948
v -0.499959 0.500000 -0.031949
v 0.500040 0.500000 -0.030652
v -0.499959 -0.125000 -0.031948
v -0.500040 -0.125000 0.030652
v -0.500040 0.125000 0.030652
v -0.499959 0.125000 -0.031948
v -0.437459 0.125000 -0.031867
v -0.437540 0.125000 0.030733
v -0.437540 0.187500 0.030733
v -0.437459 0.187500 -0.031867
v -0.374959 0.187500 -0.031786
v -0.375040 0.187500 0.030814
v -0.375040 0.250000 0.030814
v -0.374959 0.250000 -0.031786
v -0.312459 0.250000 -0.031705
v -0.312540 0.250000 0.030895
v -0.312540 0.312500 0.030895
v -0.312459 0.312500 -0.031705
v -0.249959 0.312500 -0.031624
v -0.250040 0.312500 0.030976
v -0.250040 0.375000 0.030976
v -0.249959 0.375000 -0.031624
v -0.437459 -0.187500 -0.031867
v -0.437540 -0.187500 0.030733
v -0.437540 -0.125000 0.030733
v -0.437459 -0.125000 -0.031867
v -0.249959 -0.250000 -0.031624
v -0.250040 -0.250000 0.030976
v -0.250040 -0.187500 0.030976
v -0.249959 -0.187500 -0.031624
v -0.062459 -0.312500 -0.031381
v -0.062541 -0.312500 0.031219
v -0.062541 -0.250000 0.031219
v -0.062459 -0.250000 -0.031381
v 0.125040 -0.375000 -0.031138
v 0.124959 -0.375000 0.031462
v 0.124959 -0.312500 0.031462
v 0.125040 -0.312500 -0.031138
v 0.312459 -0.375000 0.031705
v 0.312540 -0.375000 -0.030795
v 0.312540 -0.312500 -0.030795
v 0.312459 -0.312500 0.031705
v 0.374959 -0.312500 0.031786
v 0.375040 -0.312500 -0.030714
v 0.375040 -0.250000 -0.030714
v 0.374959 -0.250000 0.031786
v 0.437459 -0.250000 0.031867
v 0.437540 -0.250000 -0.030633
v 0.437540 -0.187500 -0.030633
v 0.437459 -0.187500 0.031867
v 0.437459 0.125000 0.031867
v 0.437540 0.125000 -0.030633
v 0.437540 0.187500 -0.030633
v 0.437459 0.187500 0.031867
v 0.249959 0.187500 0.031624
v 0.250040 0.187500 -0.030876
v 0.250040 0.250000 -0.030876
v 0.249959 0.250000 0.031624
v 0.062459 0.250000 0.031381
v 0.062540 0.250000 -0.031119
v 0.062540 0.312500 -0.031119
v 0.062459 0.312500 0.031381
v -0.125040 0.312500 0.031138
v -0.124959 0.312500 -0.031362
v -0.124959 0.375000 -0.031362
v -0.125040 0.375000 0.031138
v 0.499959 -0.187500 0.031948
v 0.500040 -0.187500 -0.030551
v 0.500040 0.125000 -0.030552
v 0.499959 0.125000 0.031948
v 0.500040 0.125000 -0.030652
v 0.437540 0.125000 -0.030733
v 0.437459 0.125000 0.031767
v 0.499959 0.125000 0.031848
v 0.437540 0.187500 -0.030733
v 0.250040 0.187500 -0.030976
v 0.249959 0.187500 0.031524
v 0.437459 0.187500 0.031767
v 0.250040 0.250000 -0.030976
v 0.062541 0.250000 -0.031219
v 0.062459 0.250000 0.031281
v 0.249959 0.250000 0.031524
v 0.062541 0.312500 -0.031219
v -0.124959 0.312500 -0.031462
v -0.125040 0.312500 0.031038
v 0.062459 0.312500 0.031281
v -0.124959 0.375000 -0.031462
v -0.250040 0.375000 0.030876
v -0.125040 0.375000 0.031038
v -0.312540 0.312500 0.030795
v -0.250040 0.312500 0.030876
v -0.375040 0.250000 0.030714
v -0.312540 0.250000 0.030795
v -0.437540 0.187500 0.030633
v -0.375040 0.187500 0.030714
v -0.500040 0.125000 0.030551
v -0.437540 0.125000 0.030633
v -0.499959 -0.125000 -0.031848
v -0.437459 -0.125000 -0.031767
v 0.125040 -0.375000 -0.031038
v -0.062459 -0.312500 -0.031281
v 0.125040 -0.312500 -0.031038
v -0.249959 -0.250000 -0.031524
v -0.062459 -0.250000 -0.031281
v -0.437459 -0.187500 -0.031767
v -0.249959 -0.187500 -0.031524
vt 0.000000 0.000000
vt 1.000000 0.000000
vt 1.000000 1.000000
vt 0.000000 1.000000
vt 0.000000 1.000000
vt 1.000000 1.000000
vt 1.000000 0.000000
vt 0.000000 0.000000
vt 0.937500 0.625000
vt 1.000000 0.625000
vt 1.000000 0.375000
vt 0.937500 0.375000
vt 0.875000 0.375000
vt 0.937500 0.375000
vt 0.937500 0.312500
vt 0.875000 0.312500
vt 0.812500 0.312500
vt 0.875000 0.312500
vt 0.875000 0.250000
vt 0.812500 0.250000
vt 0.750000 0.250000
vt 0.812500 0.250000
vt 0.812500 0.187500
vt 0.750000 0.187500
vt 0.687500 0.187500
vt 0.750000 0.187500
vt 0.750000 0.125000
vt 0.687500 0.125000
vt 0.875000 0.687500
vt 0.937500 0.687500
vt 0.937500 0.625000
vt 0.875000 0.625000
vt 0.687500 0.750000
vt 0.750000 0.750000
vt 0.750000 0.687500
vt 0.687500 0.687500
vt 0.500000 0.812500
vt 0.562500 0.812500
vt 0.562500 0.750000
vt 0.500000 0.750000
vt 0.312500 0.875000
vt 0.375000 0.875000
vt 0.375000 0.812500
vt 0.312500 0.812500
vt 0.187500 0.875000
vt 0.250000 0.875000
vt 0.250000 0.812500
vt 0.187500 0.812500
vt 0.125000 0.812500
vt 0.187500 0.812500
vt 0.187500 0.750000
vt 0.125000 0.750000
vt 0.062500 0.750000
vt 0.125000 0.750000
vt 0.125000 0.687500
vt 0.062500 0.687500
vt 0.062500 0.375000
vt 0.125000 0.375000
vt 0.125000 0.312500
vt 0.062500 0.312500
vt 0.250000 0.312500
vt 0.312500 0.312500
vt 0.312500 0.250000
vt 0.250000 0.250000
vt 0.437500 0.250000
vt 0.500000 0.250000
vt 0.500000 0.187500
vt 0.437500 0.187500
vt 0.625000 0.187500
vt 0.687500 0.187500
vt 0.687500 0.125000
vt 0.625000 0.125000
vt 0.000000 0.687500
vt 0.062500 0.687500
vt 0.062500 0.375000
vt 0.000000 0.375000
vt 0.000000 0.437500
vt 0.062500 0.437500
vt 0.062500 0.375000
vt 0.000000 0.375000
vt 0.062500 0.375000
vt 0.250000 0.375000
vt 0.250000 0.312500
vt 0.062500 0.312500
vt 0.250000 0.312500
vt 0.437500 0.312500
vt 0.437500 0.250000
vt 0.250000 0.250000
vt 0.437500 0.250000
vt 0.625000 0.250000
vt 0.625000 0.187500
vt 0.437500 0.187500
vt 0.625000 0.187500
vt 0.750000 0.187500
vt 0.750000 0.125000
vt 0.625000 0.125000
vt 0.750000 0.250000
vt 0.812500 0.250000
vt 0.812500 0.187500
vt 0.750000 0.187500
vt 0.812500 0.312500
vt 0.875000 0.312500
vt 0.875000 0.250000
vt 0.812500 0.250000
vt 0.875000 0.375000
vt 0.937500 0.375000
vt 0.937500 0.312500
vt 0.875000 0.312500
vt 0.937500 0.437500
vt 1.000000 0.437500
vt 1.000000 0.375000
vt 0.937500 0.375000
vt 1.000000 0.562500
vt 0.937500 0.562500
vt 0.062500 0.625000
vt 0.000000 0.625000
vt 0.125000 0.687500
vt 0.062500 0.687500
vt 0.375000 0.812500
vt 0.187500 0.812500
vt 0.562500 0.750000
vt 0.375000 0.750000
vt 0.750000 0.687500
vt 0.562500 0.687500
vt 0.937500 0.625000
vt 0.750000 0.625000
vt 0.187500 0.750000
vt 0.125000 0.750000
vn -0.0013 0.0000 1.0000
vn 0.0013 -0.0000 -1.0000
vn -1.0000 -0.0000 -0.0013
vn 1.0000 -0.0000 0.0013
vn 0.0000 1.0000 -0.0000
vn -0.0000 -1.0000 0.0000
usemtl Default_OBJ
s 1
f 1/1/1 2/2/1 3/3/1
f 3/3/1 4/4/1 1/1/1
f 5/5/2 6/6/2 7/7/2
f 7/7/2 8/8/2 5/5/2
f 9/9/3 10/10/3 11/11/3
f 11/11/3 12/12/3 9/9/3
f 13/13/3 14/14/3 15/15/3
f 15/15/3 16/16/3 13/13/3
f 17/17/3 18/18/3 19/19/3
f 19/19/3 20/20/3 17/17/3
f 21/21/3 22/22/3 23/23/3
f 23/23/3 24/24/3 21/21/3
f 25/25/3 26/26/3 27/27/3
f 27/27/3 28/28/3 25/25/3
f 29/29/3 30/30/3 31/31/3
f 31/31/3 32/32/3 29/29/3
f 33/33/3 34/34/3 35/35/3
f 35/35/3 36/36/3 33/33/3
f 37/37/3 38/38/3 39/39/3
f 39/39/3 40/40/3 37/37/3
f 41/41/3 42/42/3 43/43/3
f 43/43/3 44/44/3 41/41/3
f 45/45/4 46/46/4 47/47/4
f 47/47/4 48/48/4 45/45/4
f 49/49/4 50/50/4 51/51/4
f 51/51/4 52/52/4 49/49/4
f 53/53/4 54/54/4 55/55/4
f 55/55/4 56/56/4 53/53/4
f 57/57/4 58/58/4 59/59/4
f 59/59/4 60/60/4 57/57/4
f 61/61/4 62/62/4 63/63/4
f 63/63/4 64/64/4 61/61/4
f 65/65/4 66/66/4 67/67/4
f 67/67/4 68/68/4 65/65/4
f 69/69/4 70/70/4 71/71/4
f 71/71/4 72/72/4 69/69/4
f 73/73/4 74/74/4 75/75/4
f 75/75/4 76/76/4 73/73/4
f 77/77/5 78/78/5 79/79/5
f 79/79/5 80/80/5 77/77/5
f 81/81/5 82/82/5 83/83/5
f 83/83/5 84/84/5 81/81/5
f 85/85/5 86/86/5 87/87/5
f 87/87/5 88/88/5 85/85/5
f 89/89/5 90/90/5 91/91/5
f 91/91/5 92/92/5 89/89/5
f 93/93/5 28/94/5 94/95/5
f 94/95/5 95/96/5 93/93/5
f 25/97/5 24/98/5 96/99/5
f 96/99/5 97/100/5 25/97/5
f 21/101/5 20/102/5 98/103/5
f 98/103/5 99/104/5 21/101/5
f 17/105/5 16/106/5 100/107/5
f 100/107/5 101/108/5 17/105/5
f 13/109/5 12/110/5 102/111/5
f 102/111/5 103/112/5 13/109/5
f 31/31/6 10/10/6 104/113/6
f 104/113/6 105/114/6 31/31/6
f 73/73/6 56/56/6 55/115/6
f 55/115/6 74/116/6 73/73/6
f 53/53/6 52/52/6 51/117/6
f 51/117/6 54/118/6 53/53/6
f 45/45/6 42/42/6 106/119/6
f 106/119/6 46/120/6 45/45/6
f 43/43/6 38/38/6 107/121/6
f 107/121/6 108/122/6 43/43/6
f 39/39/6 34/34/6 109/123/6
f 109/123/6 110/124/6 39/39/6
f 35/35/6 30/30/6 111/125/6
f 111/125/6 112/126/6 35/35/6
f 49/49/6 48/48/6 47/127/6
f 47/127/6 50/128/6 49/49/6
