#Model generated with Minecraft Model Studio

#Number of verticies: 112
#Number of texture coordinates: 75
#Number of normals: 6
#Number of groups: 1

#Verticies
v -0.5 0.5 -0.0313
v 0.5 0.5 -0.0313
v 0.5 -0.5 -0.0313
v -0.5 -0.5 -0.0313
v -0.5 -0.5 0.0313
v 0.5 -0.5 0.0313
v 0.5 0.5 0.0313
v -0.5 0.5 0.0313
v 0.5 -0.125 0.0313
v 0.5 -0.125 -0.0313
v 0.5 0.125 -0.0313
v 0.5 0.125 0.0313
v 0.4375 0.125 0.0313
v 0.4375 0.125 -0.0313
v 0.4375 0.1875 -0.0313
v 0.4375 0.1875 0.0313
v 0.375 0.1875 0.0313
v 0.375 0.1875 -0.0313
v 0.375 0.25 -0.0313
v 0.375 0.25 0.0313
v 0.3125 0.25 0.0313
v 0.3125 0.25 -0.0313
v 0.3125 0.3125 -0.0313
v 0.3125 0.3125 0.0313
v 0.25 0.3125 0.0313
v 0.25 0.3125 -0.0313
v 0.25 0.375 -0.0313
v 0.25 0.375 0.0313
v 0.4375 -0.1875 0.0313
v 0.4375 -0.1875 -0.0313
v 0.4375 -0.125 -0.0313
v 0.4375 -0.125 0.0313
v 0.25 -0.25 0.0313
v 0.25 -0.25 -0.0313
v 0.25 -0.1875 -0.0313
v 0.25 -0.1875 0.0313
v 0.0625 -0.3125 0.0313
v 0.0625 -0.3125 -0.0313
v 0.0625 -0.25 -0.0313
v 0.0625 -0.25 0.0313
v -0.125 -0.375 0.0313
v -0.125 -0.375 -0.0313
v -0.125 -0.3125 -0.0313
v -0.125 -0.3125 0.0313
v -0.3125 -0.375 -0.0313
v -0.3125 -0.375 0.0312
v -0.3125 -0.3125 0.0312
v -0.3125 -0.3125 -0.0313
v -0.375 -0.3125 -0.0313
v -0.375 -0.3125 0.0312
v -0.375 -0.25 0.0312
v -0.375 -0.25 -0.0313
v -0.4375 -0.25 -0.0313
v -0.4375 -0.25 0.0312
v -0.4375 -0.1875 0.0312
v -0.4375 -0.1875 -0.0313
v -0.4375 0.125 -0.0313
v -0.4375 0.125 0.0312
v -0.4375 0.1875 0.0312
v -0.4375 0.1875 -0.0313
v -0.25 0.1875 -0.0313
v -0.25 0.1875 0.0312
v -0.25 0.25 0.0312
v -0.25 0.25 -0.0313
v -0.0625 0.25 -0.0313
v -0.0625 0.25 0.0312
v -0.0625 0.3125 0.0312
v -0.0625 0.3125 -0.0313
v 0.125 0.3125 -0.0313
v 0.125 0.3125 0.0312
v 0.125 0.375 0.0312
v 0.125 0.375 -0.0313
v -0.5 -0.1875 -0.0313
v -0.5 -0.1875 0.0312
v -0.5 0.125 0.0312
v -0.5 0.125 -0.0313
v -0.5 0.125 0.0313
v -0.4375 0.125 0.0313
v -0.4375 0.125 -0.0312
v -0.5 0.125 -0.0312
v -0.4375 0.1875 0.0313
v -0.25 0.1875 0.0313
v -0.25 0.1875 -0.0312
v -0.4375 0.1875 -0.0312
v -0.25 0.25 0.0313
v -0.0625 0.25 0.0313
v -0.0625 0.25 -0.0312
v -0.25 0.25 -0.0312
v -0.0625 0.3125 0.0313
v 0.125 0.3125 0.0313
v 0.125 0.3125 -0.0312
v -0.0625 0.3125 -0.0312
v 0.125 0.375 0.0313
v 0.25 0.375 -0.0312
v 0.125 0.375 -0.0312
v 0.3125 0.3125 -0.0312
v 0.25 0.3125 -0.0312
v 0.375 0.25 -0.0312
v 0.3125 0.25 -0.0312
v 0.4375 0.1875 -0.0312
v 0.375 0.1875 -0.0312
v 0.5 0.125 -0.0312
v 0.4375 0.125 -0.0312
v 0.5 -0.125 0.0312
v 0.4375 -0.125 0.0312
v -0.125 -0.375 0.0312
v 0.0625 -0.3125 0.0312
v -0.125 -0.3125 0.0312
v 0.25 -0.25 0.0312
v 0.0625 -0.25 0.0312
v 0.4375 -0.1875 0.0312
v 0.25 -0.1875 0.0312

#Texture Coordinates
vt 0.0 0.0
vt 1.0 0.0
vt 1.0 1.0
vt 0.0 1.0
vt 0.9375 0.625
vt 1.0 0.625
vt 1.0 0.375
vt 0.9375 0.375
vt 0.875 0.375
vt 0.9375 0.3125
vt 0.875 0.3125
vt 0.8125 0.3125
vt 0.875 0.25
vt 0.8125 0.25
vt 0.75 0.25
vt 0.8125 0.1875
vt 0.75 0.1875
vt 0.6875 0.1875
vt 0.75 0.125
vt 0.6875 0.125
vt 0.875 0.6875
vt 0.9375 0.6875
vt 0.875 0.625
vt 0.6875 0.75
vt 0.75 0.75
vt 0.75 0.6875
vt 0.6875 0.6875
vt 0.5 0.8125
vt 0.5625 0.8125
vt 0.5625 0.75
vt 0.5 0.75
vt 0.3125 0.875
vt 0.375 0.875
vt 0.375 0.8125
vt 0.3125 0.8125
vt 0.1875 0.875
vt 0.25 0.875
vt 0.25 0.8125
vt 0.1875 0.8125
vt 0.125 0.8125
vt 0.1875 0.75
vt 0.125 0.75
vt 0.0625 0.75
vt 0.125 0.6875
vt 0.0625 0.6875
vt 0.0625 0.375
vt 0.125 0.375
vt 0.125 0.3125
vt 0.0625 0.3125
vt 0.25 0.3125
vt 0.3125 0.3125
vt 0.3125 0.25
vt 0.25 0.25
vt 0.4375 0.25
vt 0.5 0.25
vt 0.5 0.1875
vt 0.4375 0.1875
vt 0.625 0.1875
vt 0.625 0.125
vt 0.0 0.6875
vt 0.0 0.375
vt 0.0 0.4375
vt 0.0625 0.4375
vt 0.25 0.375
vt 0.4375 0.3125
vt 0.625 0.25
vt 0.9375 0.4375
vt 1.0 0.4375
vt 1.0 0.5625
vt 0.9375 0.5625
vt 0.0625 0.625
vt 0.0 0.625
vt 0.375 0.75
vt 0.5625 0.6875
vt 0.75 0.625

#Normals
vn 0.0 0.0 -256.0
vn 0.0 0.0 256.0
vn 256.0 0.0 0.0
vn -256.0 0.0 0.0
vn 0.0 256.0 0.0
vn 0.0 -256.0 0.0

g Untitled
#Number of faces: 72

f 1/1/1 2/2/1 3/3/1
f 3/3/1 4/4/1 1/1/1
f 5/4/2 6/3/2 7/2/2
f 7/2/2 8/1/2 5/4/2
f 9/5/3 10/6/3 11/7/3
f 11/7/3 12/8/3 9/5/3
f 13/9/3 14/8/3 15/10/3
f 15/10/3 16/11/3 13/9/3
f 17/12/3 18/11/3 19/13/3
f 19/13/3 20/14/3 17/12/3
f 21/15/3 22/14/3 23/16/3
f 23/16/3 24/17/3 21/15/3
f 25/18/3 26/17/3 27/19/3
f 27/19/3 28/20/3 25/18/3
f 29/21/3 30/22/3 31/5/3
f 31/5/3 32/23/3 29/21/3
f 33/24/3 34/25/3 35/26/3
f 35/26/3 36/27/3 33/24/3
f 37/28/3 38/29/3 39/30/3
f 39/30/3 40/31/3 37/28/3
f 41/32/3 42/33/3 43/34/3
f 43/34/3 44/35/3 41/32/3
f 45/36/4 46/37/4 47/38/4
f 47/38/4 48/39/4 45/36/4
f 49/40/4 50/39/4 51/41/4
f 51/41/4 52/42/4 49/40/4
f 53/43/4 54/42/4 55/44/4
f 55/44/4 56/45/4 53/43/4
f 57/46/4 58/47/4 59/48/4
f 59/48/4 60/49/4 57/46/4
f 61/50/4 62/51/4 63/52/4
f 63/52/4 64/53/4 61/50/4
f 65/54/4 66/55/4 67/56/4
f 67/56/4 68/57/4 65/54/4
f 69/58/4 70/18/4 71/20/4
f 71/20/4 72/59/4 69/58/4
f 73/60/4 74/45/4 75/46/4
f 75/46/4 76/61/4 73/60/4
f 77/62/5 78/63/5 79/46/5
f 79/46/5 80/61/5 77/62/5
f 81/46/5 82/64/5 83/50/5
f 83/50/5 84/49/5 81/46/5
f 85/50/5 86/65/5 87/54/5
f 87/54/5 88/53/5 85/50/5
f 89/54/5 90/66/5 91/58/5
f 91/58/5 92/57/5 89/54/5
f 93/58/5 28/17/5 94/19/5
f 94/19/5 95/59/5 93/58/5
f 25/15/5 24/14/5 96/16/5
f 96/16/5 97/17/5 25/15/5
f 21/12/5 20/11/5 98/13/5
f 98/13/5 99/14/5 21/12/5
f 17/9/5 16/8/5 100/10/5
f 100/10/5 101/11/5 17/9/5
f 13/67/5 12/68/5 102/7/5
f 102/7/5 103/8/5 13/67/5
f 31/5/6 10/6/6 104/69/6
f 104/69/6 105/70/6 31/5/6
f 73/60/6 56/45/6 55/71/6
f 55/71/6 74/72/6 73/60/6
f 53/43/6 52/42/6 51/44/6
f 51/44/6 54/45/6 53/43/6
f 45/36/6 42/33/6 106/34/6
f 106/34/6 46/39/6 45/36/6
f 43/34/6 38/29/6 107/30/6
f 107/30/6 108/73/6 43/34/6
f 39/30/6 34/25/6 109/26/6
f 109/26/6 110/74/6 39/30/6
f 35/26/6 30/22/6 111/5/6
f 111/5/6 112/75/6 35/26/6
f 49/40/6 48/39/6 47/41/6
f 47/41/6 50/42/6 49/40/6

