v -0.0625 -0.0625 1.0000
v 0.0625 -0.0625 1.0000
v 0.0625 0.0625 1.0000
vt 0.0000 0.0000
vt 1.0000 0.0000
vt 1.0000 1.0000
vn 0.0000 0.0000 1.0000
vn 0.0000 0.0000 1.0000
vn 0.0000 0.0000 1.0000
f 1/1/1 2/2/2 3/3/3
v 0.0625 0.0625 1.0000
v -0.0625 0.0625 1.0000
v -0.0625 -0.0625 1.0000
vt 1.0000 1.0000
vt 0.0000 1.0000
vt 0.0000 0.0000
vn 0.0000 0.0000 1.0000
vn 0.0000 0.0000 1.0000
vn 0.0000 0.0000 1.0000
f 4/4/4 5/5/5 6/6/6
v -0.0625 -0.0625 0.0000
v -0.0625 0.0625 0.0000
v 0.0625 0.0625 0.0000
vt 0.0000 0.0000
vt 0.0000 1.0000
vt 1.0000 1.0000
vn 0.0000 0.0000 -1.0000
vn 0.0000 0.0000 -1.0000
vn 0.0000 0.0000 -1.0000
f 7/7/7 8/8/8 9/9/9
v 0.0625 0.0625 0.0000
v 0.0625 -0.0625 0.0000
v -0.0625 -0.0625 0.0000
vt 1.0000 1.0000
vt 1.0000 0.0000
vt 0.0000 0.0000
vn 0.0000 0.0000 -1.0000
vn 0.0000 0.0000 -1.0000
vn 0.0000 0.0000 -1.0000
f 10/10/10 11/11/11 12/12/12
v -0.0625 0.0625 0.0000
v -0.0625 0.0625 1.0000
v 0.0625 0.0625 1.0000
vt 0.0000 0.0000
vt 0.0000 1.0000
vt 1.0000 1.0000
vn 0.0000 1.0000 0.0000
vn 0.0000 1.0000 0.0000
vn 0.0000 1.0000 0.0000
f 13/13/13 14/14/14 15/15/15
v 0.0625 0.0625 1.0000
v 0.0625 0.0625 0.0000
v -0.0625 0.0625 0.0000
vt 1.0000 1.0000
vt 1.0000 0.0000
vt 0.0000 0.0000
vn 0.0000 1.0000 0.0000
vn 0.0000 1.0000 0.0000
vn 0.0000 1.0000 0.0000
f 16/16/16 17/17/17 18/18/18
v 0.0625 -0.0625 0.0000
v 0.0625 -0.0625 1.0000
v -0.0625 -0.0625 1.0000
vt 0.0000 0.0000
vt 0.0000 1.0000
vt 1.0000 1.0000
vn 0.0000 -1.0000 0.0000
vn 0.0000 -1.0000 0.0000
vn 0.0000 -1.0000 0.0000
f 19/19/19 20/20/20 21/21/21
v -0.0625 -0.0625 1.0000
v -0.0625 -0.0625 0.0000
v 0.0625 -0.0625 0.0000
vt 1.0000 1.0000
vt 1.0000 0.0000
vt 0.0000 0.0000
vn 0.0000 -1.0000 0.0000
vn 0.0000 -1.0000 0.0000
vn 0.0000 -1.0000 0.0000
f 22/22/22 23/23/23 24/24/24
v -0.0625 -0.0625 0.0000
v -0.0625 -0.0625 1.0000
v -0.0625 0.0625 1.0000
vt 0.0000 0.0000
vt 0.0000 1.0000
vt 1.0000 1.0000
vn -1.0000 0.0000 0.0000
vn -1.0000 0.0000 0.0000
vn -1.0000 0.0000 0.0000
f 25/25/25 26/26/26 27/27/27
v -0.0625 0.0625 1.0000
v -0.0625 0.0625 0.0000
v -0.0625 -0.0625 0.0000
vt 1.0000 1.0000
vt 1.0000 0.0000
vt 0.0000 0.0000
vn -1.0000 0.0000 0.0000
vn -1.0000 0.0000 0.0000
vn -1.0000 0.0000 0.0000
f 28/28/28 29/29/29 30/30/30
v 0.0625 0.0625 0.0000
v 0.0625 0.0625 1.0000
v 0.0625 -0.0625 1.0000
vt 0.0000 0.0000
vt 0.0000 1.0000
vt 1.0000 1.0000
vn 1.0000 0.0000 0.0000
vn 1.0000 0.0000 0.0000
vn 1.0000 0.0000 0.0000
f 31/31/31 32/32/32 33/33/33
v 0.0625 -0.0625 1.0000
v 0.0625 -0.0625 0.0000
v 0.0625 0.0625 0.0000
vt 1.0000 1.0000
vt 1.0000 0.0000
vt 0.0000 0.0000
vn 1.0000 0.0000 0.0000
vn 1.0000 0.0000 0.0000
vn 1.0000 0.0000 0.0000
f 34/34/34 35/35/35 36/36/36
v -0.1250 -0.1250 0.8125
v 0.1250 -0.1250 0.8125
v 0.1250 0.1250 0.8125
vt 0.0000 0.0000
vt 1.0000 0.0000
vt 1.0000 1.0000
vn 0.0000 0.0000 1.0000
vn 0.0000 0.0000 1.0000
vn 0.0000 0.0000 1.0000
f 37/37/37 38/38/38 39/39/39
v 0.1250 0.1250 0.8125
v -0.1250 0.1250 0.8125
v -0.1250 -0.1250 0.8125
vt 1.0000 1.0000
vt 0.0000 1.0000
vt 0.0000 0.0000
vn 0.0000 0.0000 1.0000
vn 0.0000 0.0000 1.0000
vn 0.0000 0.0000 1.0000
f 40/40/40 41/41/41 42/42/42
v -0.1250 -0.1250 0.0625
v -0.1250 0.1250 0.0625
v 0.1250 0.1250 0.0625
vt 0.0000 0.0000
vt 0.0000 1.0000
vt 1.0000 1.0000
vn 0.0000 0.0000 -1.0000
vn 0.0000 0.0000 -1.0000
vn 0.0000 0.0000 -1.0000
f 43/43/43 44/44/44 45/45/45
v 0.1250 0.1250 0.0625
v 0.1250 -0.1250 0.0625
v -0.1250 -0.1250 0.0625
vt 1.0000 1.0000
vt 1.0000 0.0000
vt 0.0000 0.0000
vn 0.0000 0.0000 -1.0000
vn 0.0000 0.0000 -1.0000
vn 0.0000 0.0000 -1.0000
f 46/46/46 47/47/47 48/48/48
v -0.1250 0.1250 0.0625
v -0.1250 0.1250 0.8125
v 0.1250 0.1250 0.8125
vt 0.0000 0.0000
vt 0.0000 1.0000
vt 1.0000 1.0000
vn 0.0000 1.0000 0.0000
vn 0.0000 1.0000 0.0000
vn 0.0000 1.0000 0.0000
f 49/49/49 50/50/50 51/51/51
v 0.1250 0.1250 0.8125
v 0.1250 0.1250 0.0625
v -0.1250 0.1250 0.0625
vt 1.0000 1.0000
vt 1.0000 0.0000
vt 0.0000 0.0000
vn 0.0000 1.0000 0.0000
vn 0.0000 1.0000 0.0000
vn 0.0000 1.0000 0.0000
f 52/52/52 53/53/53 54/54/54
v 0.1250 -0.1250 0.0625
v 0.1250 -0.1250 0.8125
v -0.1250 -0.1250 0.8125
vt 0.0000 0.0000
vt 0.0000 1.0000
vt 1.0000 1.0000
vn 0.0000 -1.0000 0.0000
vn 0.0000 -1.0000 0.0000
vn 0.0000 -1.0000 0.0000
f 55/55/55 56/56/56 57/57/57
v -0.1250 -0.1250 0.8125
v -0.1250 -0.1250 0.0625
v 0.1250 -0.1250 0.0625
vt 1.0000 1.0000
vt 1.0000 0.0000
vt 0.0000 0.0000
vn 0.0000 -1.0000 0.0000
vn 0.0000 -1.0000 0.0000
vn 0.0000 -1.0000 0.0000
f 58/58/58 59/59/59 60/60/60
v -0.1250 -0.1250 0.0625
v -0.1250 -0.1250 0.8125
v -0.1250 0.1250 0.8125
vt 0.0000 0.0000
vt 0.0000 1.0000
vt 1.0000 1.0000
vn -1.0000 0.0000 0.0000
vn -1.0000 0.0000 0.0000
vn -1.0000 0.0000 0.0000
f 61/61/61 62/62/62 63/63/63
v -0.1250 0.1250 0.8125
v -0.1250 0.1250 0.0625
v -0.1250 -0.1250 0.0625
vt 1.0000 1.0000
vt 1.0000 0.0000
vt 0.0000 0.0000
vn -1.0000 0.0000 0.0000
vn -1.0000 0.0000 0.0000
vn -1.0000 0.0000 0.0000
f 64/64/64 65/65/65 66/66/66
v 0.1250 0.1250 0.0625
v 0.1250 0.1250 0.8125
v 0.1250 -0.1250 0.8125
vt 0.0000 0.0000
vt 0.0000 1.0000
vt 1.0000 1.0000
vn 1.0000 0.0000 0.0000
vn 1.0000 0.0000 0.0000
vn 1.0000 0.0000 0.0000
f 67/67/67 68/68/68 69/69/69
v 0.1250 -0.1250 0.8125
v 0.1250 -0.1250 0.0625
v 0.1250 0.1250 0.0625
vt 1.0000 1.0000
vt 1.0000 0.0000
vt 0.0000 0.0000
vn 1.0000 0.0000 0.0000
vn 1.0000 0.0000 0.0000
vn 1.0000 0.0000 0.0000
f 70/70/70 71/71/71 72/72/72
v -0.1875 -0.1875 0.6250
v 0.1875 -0.1875 0.6250
v 0.1875 0.1875 0.6250
vt 0.0000 0.0000
vt 1.0000 0.0000
vt 1.0000 1.0000
vn 0.0000 0.0000 1.0000
vn 0.0000 0.0000 1.0000
vn 0.0000 0.0000 1.0000
f 73/73/73 74/74/74 75/75/75
v 0.1875 0.1875 0.6250
v -0.1875 0.1875 0.6250
v -0.1875 -0.1875 0.6250
vt 1.0000 1.0000
vt 0.0000 1.0000
vt 0.0000 0.0000
vn 0.0000 0.0000 1.0000
vn 0.0000 0.0000 1.0000
vn 0.0000 0.0000 1.0000
f 76/76/76 77/77/77 78/78/78
v -0.1875 -0.1875 0.1250
v -0.1875 0.1875 0.1250
v 0.1875 0.1875 0.1250
vt 0.0000 0.0000
vt 0.0000 1.0000
vt 1.0000 1.0000
vn 0.0000 0.0000 -1.0000
vn 0.0000 0.0000 -1.0000
vn 0.0000 0.0000 -1.0000
f 79/79/79 80/80/80 81/81/81
v 0.1875 0.1875 0.1250
v 0.1875 -0.1875 0.1250
v -0.1875 -0.1875 0.1250
vt 1.0000 1.0000
vt 1.0000 0.0000
vt 0.0000 0.0000
vn 0.0000 0.0000 -1.0000
vn 0.0000 0.0000 -1.0000
vn 0.0000 0.0000 -1.0000
f 82/82/82 83/83/83 84/84/84
v -0.1875 0.1875 0.1250
v -0.1875 0.1875 0.6250
v 0.1875 0.1875 0.6250
vt 0.0000 0.0000
vt 0.0000 1.0000
vt 1.0000 1.0000
vn 0.0000 1.0000 0.0000
vn 0.0000 1.0000 0.0000
vn 0.0000 1.0000 0.0000
f 85/85/85 86/86/86 87/87/87
v 0.1875 0.1875 0.6250
v 0.1875 0.1875 0.1250
v -0.1875 0.1875 0.1250
vt 1.0000 1.0000
vt 1.0000 0.0000
vt 0.0000 0.0000
vn 0.0000 1.0000 0.0000
vn 0.0000 1.0000 0.0000
vn 0.0000 1.0000 0.0000
f 88/88/88 89/89/89 90/90/90
v 0.1875 -0.1875 0.1250
v 0.1875 -0.1875 0.6250
v -0.1875 -0.1875 0.6250
vt 0.0000 0.0000
vt 0.0000 1.0000
vt 1.0000 1.0000
vn 0.0000 -1.0000 0.0000
vn 0.0000 -1.0000 0.0000
vn 0.0000 -1.0000 0.0000
f 91/91/91 92/92/92 93/93/93
v -0.1875 -0.1875 0.6250
v -0.1875 -0.1875 0.1250
v 0.1875 -0.1875 0.1250
vt 1.0000 1.0000
vt 1.0000 0.0000
vt 0.0000 0.0000
vn 0.0000 -1.0000 0.0000
vn 0.0000 -1.0000 0.0000
vn 0.0000 -1.0000 0.0000
f 94/94/94 95/95/95 96/96/96
v -0.1875 -0.1875 0.1250
v -0.1875 -0.1875 0.6250
v -0.1875 0.1875 0.6250
vt 0.0000 0.0000
vt 0.0000 1.0000
vt 1.0000 1.0000
vn -1.0000 0.0000 0.0000
vn -1.0000 0.0000 0.0000
vn -1.0000 0.0000 0.0000
f 97/97/97 98/98/98 99/99/99
v -0.1875 0.1875 0.6250
v -0.1875 0.1875 0.1250
v -0.1875 -0.1875 0.1250
vt 1.0000 1.0000
vt 1.0000 0.0000
vt 0.0000 0.0000
vn -1.0000 0.0000 0.0000
vn -1.0000 0.0000 0.0000
vn -1.0000 0.0000 0.0000
f 100/100/100 101/101/101 102/102/102
v 0.1875 0.1875 0.1250
v 0.1875 0.1875 0.6250
v 0.1875 -0.1875 0.6250
vt 0.0000 0.0000
vt 0.0000 1.0000
vt 1.0000 1.0000
vn 1.0000 0.0000 0.0000
vn 1.0000 0.0000 0.0000
vn 1.0000 0.0000 0.0000
f 103/103/103 104/104/104 105/105/105
v 0.1875 -0.1875 0.6250
v 0.1875 -0.1875 0.1250
v 0.1875 0.1875 0.1250
vt 1.0000 1.0000
vt 1.0000 0.0000
vt 0.0000 0.0000
vn 1.0000 0.0000 0.0000
vn 1.0000 0.0000 0.0000
vn 1.0000 0.0000 0.0000
f 106/106/106 107/107/107 108/108/108
v -0.2500 -0.2500 0.4375
v 0.2500 -0.2500 0.4375
v 0.2500 0.2500 0.4375
vt 0.0000 0.0000
vt 1.0000 0.0000
vt 1.0000 1.0000
vn 0.0000 0.0000 1.0000
vn 0.0000 0.0000 1.0000
vn 0.0000 0.0000 1.0000
f 109/109/109 110/110/110 111/111/111
v 0.2500 0.2500 0.4375
v -0.2500 0.2500 0.4375
v -0.2500 -0.2500 0.4375
vt 1.0000 1.0000
vt 0.0000 1.0000
vt 0.0000 0.0000
vn 0.0000 0.0000 1.0000
vn 0.0000 0.0000 1.0000
vn 0.0000 0.0000 1.0000
f 112/112/112 113/113/113 114/114/114
v -0.2500 -0.2500 0.1875
v -0.2500 0.2500 0.1875
v 0.2500 0.2500 0.1875
vt 0.0000 0.0000
vt 0.0000 1.0000
vt 1.0000 1.0000
vn 0.0000 0.0000 -1.0000
vn 0.0000 0.0000 -1.0000
vn 0.0000 0.0000 -1.0000
f 115/115/115 116/116/116 117/117/117
v 0.2500 0.2500 0.1875
v 0.2500 -0.2500 0.1875
v -0.2500 -0.2500 0.1875
vt 1.0000 1.0000
vt 1.0000 0.0000
vt 0.0000 0.0000
vn 0.0000 0.0000 -1.0000
vn 0.0000 0.0000 -1.0000
vn 0.0000 0.0000 -1.0000
f 118/118/118 119/119/119 120/120/120
v -0.2500 0.2500 0.1875
v -0.2500 0.2500 0.4375
v 0.2500 0.2500 0.4375
vt 0.0000 0.0000
vt 0.0000 1.0000
vt 1.0000 1.0000
vn 0.0000 1.0000 0.0000
vn 0.0000 1.0000 0.0000
vn 0.0000 1.0000 0.0000
f 121/121/121 122/122/122 123/123/123
v 0.2500 0.2500 0.4375
v 0.2500 0.2500 0.1875
v -0.2500 0.2500 0.1875
vt 1.0000 1.0000
vt 1.0000 0.0000
vt 0.0000 0.0000
vn 0.0000 1.0000 0.0000
vn 0.0000 1.0000 0.0000
vn 0.0000 1.0000 0.0000
f 124/124/124 125/125/125 126/126/126
v 0.2500 -0.2500 0.1875
v 0.2500 -0.2500 0.4375
v -0.2500 -0.2500 0.4375
vt 0.0000 0.0000
vt 0.0000 1.0000
vt 1.0000 1.0000
vn 0.0000 -1.0000 0.0000
vn 0.0000 -1.0000 0.0000
vn 0.0000 -1.0000 0.0000
f 127/127/127 128/128/128 129/129/129
v -0.2500 -0.2500 0.4375
v -0.2500 -0.2500 0.1875
v 0.2500 -0.2500 0.1875
vt 1.0000 1.0000
vt 1.0000 0.0000
vt 0.0000 0.0000
vn 0.0000 -1.0000 0.0000
vn 0.0000 -1.0000 0.0000
vn 0.0000 -1.0000 0.0000
f 130/130/130 131/131/131 132/132/132
v -0.2500 -0.2500 0.1875
v -0.2500 -0.2500 0.4375
v -0.2500 0.2500 0.4375
vt 0.0000 0.0000
vt 0.0000 1.0000
vt 1.0000 1.0000
vn -1.0000 0.0000 0.0000
vn -1.0000 0.0000 0.0000
vn -1.0000 0.0000 0.0000
f 133/133/133 134/134/134 135/135/135
v -0.2500 0.2500 0.4375
v -0.2500 0.2500 0.1875
v -0.2500 -0.2500 0.1875
vt 1.0000 1.0000
vt 1.0000 0.0000
vt 0.0000 0.0000
vn -1.0000 0.0000 0.0000
vn -1.0000 0.0000 0.0000
vn -1.0000 0.0000 0.0000
f 136/136/136 137/137/137 138/138/138
v 0.2500 0.2500 0.1875
v 0.2500 0.2500 0.4375
v 0.2500 -0.2500 0.4375
vt 0.0000 0.0000
vt 0.0000 1.0000
vt 1.0000 1.0000
vn 1.0000 0.0000 0.0000
vn 1.0000 0.0000 0.0000
vn 1.0000 0.0000 0.0000
f 139/139/139 140/140/140 141/141/141
v 0.2500 -0.2500 0.4375
v 0.2500 -0.2500 0.1875
v 0.2500 0.2500 0.1875
vt 1.0000 1.0000
vt 1.0000 0.0000
vt 0.0000 0.0000
vn 1.0000 0.0000 0.0000
vn 1.0000 0.0000 0.0000
vn 1.0000 0.0000 0.0000
f 142/142/142 143/143/143 144/144/144
